<svg xmlns="http://www.w3.org/2000/svg" viewBox="0 0 100 100" fill="none" width="100%" height="100%">
  <!-- Sun -->
  <circle cx="75" cy="25" r="12" fill="#f59e0b" />
  <path d="M75 6V10M75 40V44M56 25H60M90 25H94M61 11L65 15M85 35L89 39M61 39L65 35M85 11L89 15" stroke="#f59e0b" stroke-width="3" stroke-linecap="round" />
  <!-- Sun rays glowing paths -->
  <line x1="60" y1="33" x2="48" y2="43" stroke="#fca311" stroke-dasharray="3 3" stroke-width="2" stroke-linecap="round" />
  <line x1="52" y1="28" x2="38" y2="40" stroke="#fca311" stroke-dasharray="3 3" stroke-width="2" stroke-linecap="round" />

  <!-- Solar Panel (Diagonal Perspective) -->
  <!-- Support structures -->
  <line x1="38" y1="65" x2="30" y2="82" stroke="#64748b" stroke-width="4" stroke-linecap="round" />
  <line x1="58" y1="65" x2="66" y2="82" stroke="#64748b" stroke-width="4" stroke-linecap="round" />
  <line x1="22" y1="82" x2="74" y2="82" stroke="#475569" stroke-width="3" stroke-linecap="round" />

  <!-- Panel Face -->
  <polygon points="18,65 78,65 66,42 26,42" fill="#1e3a8a" stroke="#475569" stroke-width="3" stroke-linejoin="round" />
  
  <!-- Panel Grid Lines (white/silver lines) -->
  <!-- Horizontal -->
  <line x1="23.3" y1="49.6" x2="69.7" y2="49.6" stroke="#94a3b8" stroke-width="1.5" />
  <line x1="20.7" y1="57.3" x2="73.8" y2="57.3" stroke="#94a3b8" stroke-width="1.5" />
  <!-- Vertical (angled) -->
  <line x1="36" y1="42" x2="30" y2="65" stroke="#94a3b8" stroke-width="1.5" />
  <line x1="46" y1="42" x2="46" y2="65" stroke="#94a3b8" stroke-width="1.5" />
  <line x1="56" y1="42" x2="62" y2="65" stroke="#94a3b8" stroke-width="1.5" />
</svg>
