<svg xmlns="http://www.w3.org/2000/svg" viewBox="0 0 64 64" fill="none" width="100%" height="100%">
  <defs>
    <linearGradient id="grad-repair" x1="0%" y1="0%" x2="100%" y2="100%">
      <stop offset="0%" stop-color="#2ecc71" />
      <stop offset="100%" stop-color="#065f46" />
    </linearGradient>
  </defs>
  <circle cx="32" cy="32" r="28" fill="url(#grad-repair)" />
  <!-- Screwdriver -->
  <path d="M16 48 L24 40" stroke="white" stroke-width="6" stroke-linecap="round" />
  <path d="M22 42 L42 22" stroke="white" stroke-width="3" stroke-linecap="round" />
  <path d="M41 23 L46 18" stroke="white" stroke-width="4" stroke-linecap="round" />
  <!-- Wrench -->
  <path d="M48 48 L36 36" stroke="white" stroke-width="5" stroke-linecap="round" />
  <path d="M38 38 L24 24" stroke="white" stroke-width="5" stroke-linecap="round" />
  <path d="M24 24 C20 20 16 22 14 24 C12 26 12 30 16 32 C18 31 19 29 21 29 C23 29 24 30 24 32 C22 34 18 34 16 32" stroke="white" stroke-width="2" stroke-linecap="round" fill="white" />
  <path d="M44 14 C48 10 52 14 50 16 L45 21 L43 19 Z" fill="white" />
</svg>
